<?xml version="1.0" standalone="no"?>
<!DOCTYPE svg PUBLIC "-//W3C//DTD SVG 20010904//EN"
 "http://www.w3.org/TR/2001/REC-SVG-20010904/DTD/svg10.dtd">
<svg version="1.0" xmlns="http://www.w3.org/2000/svg"
 width="300.000000pt" height="450.000000pt" viewBox="0 0 300.000000 450.000000"
 preserveAspectRatio="xMidYMid meet">
<metadata>
Created by potrace 1.10, written by Peter Selinger 2001-2011
</metadata>
<g transform="translate(0.000000,450.000000) scale(0.100000,-0.100000)"
fill="#0000ff" stroke="none">
<path d="M1639 2807 c-20 -8 -53 -24 -73 -36 -38 -24 -99 -91 -90 -100 3 -3
10 2 15 11 37 66 138 121 232 126 85 5 90 -13 5 -22 -108 -13 -204 -81 -246
-173 -10 -24 -22 -40 -25 -37 -3 4 -9 -4 -12 -18 -11 -43 27 -171 62 -210 9
-10 14 -18 12 -19 -2 0 -20 -3 -39 -6 -19 -2 -60 -15 -90 -29 -30 -14 -56 -21
-58 -16 -9 29 -71 118 -92 134 -14 10 -53 23 -87 29 -88 16 -154 -5 -226 -71
-62 -57 -85 -105 -94 -195 -9 -101 41 -185 136 -227 48 -22 146 -27 179 -9 18
9 20 7 26 -27 8 -52 48 -132 86 -176 19 -22 29 -41 24 -46 -16 -16 -168 -49
-257 -56 -80 -6 -90 -9 -99 -30 -6 -12 -8 -30 -4 -40 6 -15 17 -16 104 -10 53
3 128 13 166 21 38 8 71 14 72 12 1 -1 -12 -34 -31 -73 -27 -58 -43 -79 -87
-112 -122 -90 -157 -281 -65 -358 16 -13 25 -24 20 -24 -4 -1 3 -7 16 -14 20
-11 21 -14 6 -20 -21 -8 -35 0 -35 20 0 14 -21 19 -33 8 -11 -12 13 -43 28
-38 8 4 15 2 15 -4 0 -5 17 -12 38 -15 20 -3 54 -12 75 -21 35 -16 36 -18 23
-39 -8 -12 -17 -38 -21 -57 -4 -19 -12 -41 -18 -48 -5 -7 -7 -15 -4 -18 9 -10
27 6 27 24 0 27 33 111 45 116 6 2 47 -3 90 -11 86 -15 231 -23 438 -24 105 0
132 3 147 16 26 23 64 10 94 -33 14 -21 46 -57 71 -81 25 -24 45 -47 45 -51 0
-4 14 -24 30 -45 17 -21 30 -35 30 -31 0 15 -96 144 -152 204 -32 34 -58 67
-58 72 0 6 11 10 25 10 16 0 25 6 25 15 0 8 -9 15 -20 15 -11 0 -20 -5 -20
-11 0 -7 -9 -9 -21 -6 -12 3 -28 -2 -39 -13 -10 -10 -38 -22 -63 -25 -48 -7
-477 9 -517 19 -14 4 -47 11 -74 16 -27 6 -54 14 -60 19 -6 4 -23 11 -37 14
-40 10 -144 117 -152 156 -8 37 5 101 28 149 18 36 30 43 20 12 -5 -15 -3 -18
9 -14 9 3 16 12 16 19 0 23 113 155 139 163 47 13 282 6 356 -10 39 -9 71 -15
73 -13 1 1 -14 10 -34 20 -51 24 -235 60 -243 48 -3 -6 -28 -12 -54 -15 -54
-6 -67 5 -47 42 11 20 8 26 -25 53 l-37 30 36 33 c20 18 36 37 36 42 0 5 -17
35 -38 68 -21 32 -48 86 -60 119 -13 34 -32 66 -42 73 -11 7 -48 11 -88 10
-55 -2 -77 2 -117 22 -62 31 -87 65 -93 128 -4 42 1 58 32 118 63 118 121 164
209 164 76 0 102 -16 153 -91 25 -38 52 -69 59 -69 27 0 160 53 182 73 l22 19
-25 65 c-55 148 -7 261 143 336 217 110 458 -15 429 -222 -13 -97 -54 -182
-107 -223 -97 -74 -106 -93 -69 -141 30 -38 53 -139 45 -200 -13 -92 -46 -156
-117 -230 -52 -53 -52 -55 -38 -77 6 -10 -1 -23 -31 -48 -37 -32 -39 -36 -39
-93 0 -48 -3 -59 -16 -59 -13 0 -10 -5 8 -20 15 -11 28 -34 31 -54 7 -42 36
-106 48 -106 13 0 11 18 -11 105 -19 76 -26 168 -14 198 5 13 15 12 74 -8 91
-31 216 -58 230 -50 5 3 10 21 10 39 0 32 0 32 -77 50 -137 32 -251 76 -197
76 10 0 42 11 70 24 83 39 145 132 129 194 -7 26 -8 25 -23 -18 -16 -49 -57
-114 -91 -144 -38 -34 -33 -10 9 40 38 46 75 124 87 186 10 52 -17 157 -53
204 -19 24 -34 46 -34 48 0 2 10 6 23 10 31 7 110 78 135 119 33 54 52 126 53
197 1 126 -60 215 -180 261 -71 27 -247 37 -302 16z m-617 -403 c-56 -28 -104
-77 -130 -133 -9 -20 -20 -39 -25 -42 -4 -3 -12 -25 -17 -50 -9 -44 -9 -44 -4
10 5 58 22 96 63 149 29 37 115 92 145 92 11 0 -3 -11 -32 -26z m-4 -791 c-10
-2 -28 -2 -40 0 -13 2 -5 4 17 4 22 1 32 -1 23 -4z"/>
<path d="M408 2342 c-16 -2 -28 -8 -28 -13 0 -13 47 -11 55 2 9 14 5 15 -27
11z"/>
<path d="M1283 2178 c-28 -31 -45 -66 -38 -78 3 -6 1 -10 -4 -10 -6 0 -11 -7
-11 -15 0 -31 26 -8 58 50 17 32 32 63 32 67 0 15 -16 8 -37 -14z"/>
<path d="M836 1886 c-23 -36 -20 -44 5 -12 12 15 19 29 16 32 -2 2 -12 -7 -21
-20z"/>
<path d="M881 1830 c1 -25 -1 -65 -6 -90 -6 -37 -5 -43 6 -32 18 16 25 140 10
155 -9 9 -12 1 -10 -33z"/>
<path d="M920 1836 c0 -8 5 -18 10 -21 6 -3 10 3 10 14 0 12 -4 21 -10 21 -5
0 -10 -6 -10 -14z"/>
<path d="M2215 1800 c-3 -5 3 -10 14 -10 11 0 23 5 26 10 3 6 -3 10 -14 10
-11 0 -23 -4 -26 -10z"/>
<path d="M923 1758 c-6 -24 -10 -44 -8 -46 5 -5 21 29 29 61 11 44 -9 31 -21
-15z"/>
<path d="M2157 1794 c-4 -4 -7 -14 -7 -23 0 -11 3 -12 11 -4 6 6 10 16 7 23
-2 6 -7 8 -11 4z"/>
<path d="M940 1700 c-12 -30 -35 -44 -24 -15 4 9 0 15 -9 15 -8 0 -18 -7 -21
-16 -8 -22 -9 -21 15 -27 33 -9 86 51 60 67 -5 3 -14 -8 -21 -24z"/>
<path d="M2234 1695 c-10 -40 1 -50 13 -11 6 20 7 36 2 36 -5 0 -11 -11 -15
-25z"/>
<path d="M377 1675 c-44 -15 -65 -32 -27 -21 14 5 37 10 53 13 28 5 48 23 25
23 -7 -1 -30 -7 -51 -15z"/>
<path d="M255 1640 c-7 -12 12 -12 40 0 18 8 17 9 -7 9 -15 1 -30 -3 -33 -9z"/>
<path d="M882 1638 c-7 -7 -12 -27 -12 -45 0 -26 -4 -33 -20 -33 -11 0 -20 -5
-20 -11 0 -6 12 -9 28 -7 24 3 27 7 24 35 -2 17 2 41 8 52 12 24 10 27 -8 9z"/>
<path d="M2150 1613 c0 -22 2 -25 10 -13 13 20 13 40 0 40 -5 0 -10 -12 -10
-27z"/>
<path d="M2215 1579 c-11 -65 -31 -99 -59 -99 -14 0 -26 5 -28 11 -4 12 -38 1
-38 -13 0 -5 9 -7 19 -3 11 3 22 1 26 -5 12 -20 54 -11 71 16 20 29 34 107 23
125 -4 6 -10 -8 -14 -32z"/>
<path d="M1416 1419 c26 -29 24 -101 -5 -156 -12 -24 -26 -43 -31 -43 -14 0
-12 13 3 30 6 8 2 6 -10 -4 -23 -19 -23 -19 -44 0 -16 14 -21 15 -17 4 8 -25
55 -47 75 -34 27 16 62 94 63 140 0 36 -26 84 -47 84 -3 0 2 -9 13 -21z"/>
<path d="M1311 1396 c-13 -20 -21 -49 -20 -72 l1 -39 13 41 c16 50 34 86 49
96 7 5 5 8 -6 8 -9 0 -26 -15 -37 -34z"/>
<path d="M1509 1413 c-9 -10 -15 -48 -17 -98 -4 -82 -4 -82 27 -104 46 -33 91
-26 113 19 31 63 14 165 -31 190 -30 15 -77 12 -92 -7z m79 -2 c23 -14 43
-111 32 -152 -14 -53 -35 -67 -68 -48 -29 16 -40 43 -41 107 -2 75 35 120 77
93z"/>
<path d="M1055 1363 c-55 -14 -100 -75 -93 -125 3 -20 5 -18 21 17 11 22 38
57 60 77 23 21 40 37 37 37 -3 -1 -14 -4 -25 -6z"/>
<path d="M1820 1291 c0 -18 12 -41 22 -41 10 0 108 -67 146 -99 28 -25 39 -75
21 -98 -12 -15 -12 -16 1 -8 12 6 13 5 3 -6 -17 -18 -16 -30 2 -23 20 8 55 66
55 92 0 11 -12 35 -27 52 -28 34 -141 112 -186 129 -34 13 -37 13 -37 2z"/>
<path d="M1107 1253 c-10 -10 -8 -56 4 -73 7 -11 8 -4 3 24 -5 27 -3 41 7 47
8 5 9 9 3 9 -6 0 -14 -3 -17 -7z"/>
<path d="M948 1184 c-3 -3 -34 -7 -69 -8 -35 -2 -84 -9 -109 -15 -25 -6 -56
-12 -70 -14 -14 -1 -30 -6 -36 -9 -6 -4 -25 -9 -43 -10 -17 -1 -31 -8 -31 -14
0 -13 -22 -24 -48 -24 -13 0 -12 3 4 15 10 8 -15 1 -56 -16 -41 -17 -82 -38
-90 -46 -13 -13 -11 -13 15 -2 17 7 36 17 43 22 20 15 249 10 331 -7 44 -9 77
-12 81 -7 3 5 34 22 70 37 36 15 66 29 68 30 5 3 -42 74 -49 74 -3 0 -8 -2
-11 -6z m22 -34 c0 -5 -6 -10 -14 -10 -8 0 -16 -7 -20 -15 -3 -8 -12 -15 -20
-15 -9 0 -30 -9 -48 -20 -39 -24 -66 -25 -94 -5 -12 8 -24 12 -27 9 -9 -10
-117 -13 -117 -4 0 13 60 23 131 21 48 -1 70 3 79 14 7 8 28 15 46 15 19 0 34
5 34 10 0 6 11 10 25 10 14 0 25 -4 25 -10z m-162 -14 c-7 -8 -16 -12 -21 -9
-11 7 2 23 19 23 12 0 12 -2 2 -14z"/>
<path d="M1086 1108 c15 -31 51 -67 66 -68 4 0 -6 15 -23 32 -16 18 -32 41
-35 50 -3 10 -10 18 -15 18 -5 0 -2 -15 7 -32z"/>
<path d="M2062 1020 c-22 -29 -22 -30 -2 -30 33 0 111 -34 179 -78 48 -32 67
-39 73 -30 4 7 8 9 8 3 0 -30 -16 -36 -61 -22 -73 24 -190 50 -196 43 -3 -3 8
-18 25 -34 17 -16 34 -27 37 -24 3 3 5 0 5 -6 0 -8 19 -11 53 -10 29 1 59 -2
66 -7 11 -6 13 -4 8 9 -6 15 -4 17 10 11 26 -11 55 -8 64 6 11 18 79 -6 145
-53 73 -51 109 -68 69 -34 -45 39 -134 100 -190 130 -65 34 -95 52 -183 109
-40 26 -76 47 -80 47 -5 0 -18 -13 -30 -30z m104 -27 c24 -16 44 -32 44 -37 0
-4 -12 0 -27 10 -49 32 -75 43 -89 37 -8 -3 -14 0 -14 6 0 20 42 12 86 -16z
m-26 -128 c20 -24 6 -28 -15 -5 -10 11 -13 20 -8 20 6 0 16 -7 23 -15z"/>
<path d="M930 1032 c0 -5 11 -19 25 -32 21 -19 25 -21 25 -7 0 9 -7 17 -16 17
-10 0 -14 6 -10 15 3 9 0 15 -9 15 -8 0 -15 -4 -15 -8z"/>
<path d="M980 1030 c0 -5 6 -10 14 -10 9 0 12 -7 9 -20 -3 -11 0 -20 6 -20 5
0 8 7 4 16 -4 10 2 17 17 21 16 4 18 8 8 14 -18 12 -58 11 -58 -1z"/>
<path d="M893 995 c-6 -14 -7 -25 -2 -25 5 0 9 5 9 11 0 6 9 8 21 4 18 -6 19
-5 7 14 -16 27 -20 26 -35 -4z"/>
<path d="M1696 843 c4 -16 13 -41 20 -58 17 -40 18 -8 2 45 -14 45 -32 55 -22
13z"/>
<path d="M1931 846 c10 -11 110 -35 104 -26 -3 5 -20 11 -38 15 -17 4 -41 9
-52 12 -11 3 -17 2 -14 -1z"/>
<path d="M2340 822 c0 -5 20 -23 45 -42 25 -19 45 -35 45 -37 0 -5 -60 4 -150
22 -135 27 -136 27 -120 17 8 -5 58 -19 110 -31 52 -11 124 -28 159 -35 50
-12 70 -22 92 -48 15 -18 28 -28 29 -22 0 6 -7 17 -15 24 -8 7 -15 19 -15 27
0 8 -4 11 -10 8 -5 -3 -10 -1 -10 4 0 6 -6 11 -12 11 -7 0 -40 25 -73 55 -59
53 -75 63 -75 47z"/>
<path d="M1720 743 c0 -6 7 -24 15 -39 12 -23 15 -25 15 -9 -1 11 -7 29 -15
39 -8 11 -15 15 -15 9z"/>
<path d="M1180 702 c0 -4 12 -7 28 -6 15 0 30 -3 33 -8 3 -5 9 -3 12 6 5 13
-1 16 -33 16 -22 0 -40 -4 -40 -8z"/>
<path d="M1270 703 c0 -6 66 -33 79 -32 12 0 13 2 2 6 -10 4 -11 7 -1 13 7 5
-7 9 -34 11 -25 2 -46 3 -46 2z"/>
<path d="M2550 700 c0 -6 13 -10 29 -10 15 0 41 -10 57 -22 l29 -23 -20 27
c-11 15 -27 28 -35 28 -8 1 -25 3 -37 6 -13 2 -23 -1 -23 -6z"/>
<path d="M1445 670 c-8 -13 25 -13 45 0 12 8 9 10 -12 10 -15 0 -30 -4 -33
-10z"/>
<path d="M2714 606 c27 -26 52 -44 55 -41 6 6 -17 27 -74 66 -16 12 -8 1 19
-25z"/>
<path d="M2560 637 c0 -17 24 -52 49 -72 14 -11 34 -28 44 -38 13 -13 22 -16
29 -9 6 6 6 12 -1 16 -6 4 -11 5 -11 2 0 -13 -61 45 -94 89 -9 11 -16 16 -16
12z"/>
<path d="M1222 622 c-9 -6 15 -12 65 -16 43 -4 89 -10 103 -13 18 -4 22 -2 15
5 -6 6 -37 14 -69 17 -33 3 -69 8 -80 10 -12 3 -27 1 -34 -3z"/>
<path d="M2230 605 c0 -11 30 -37 39 -33 5 2 -2 11 -15 21 -13 10 -24 15 -24
12z"/>
<path d="M2780 554 c0 -4 10 -18 22 -31 l22 -24 -22 -6 c-12 -3 -22 -9 -22
-14 0 -5 7 -6 15 -3 8 4 15 1 15 -6 0 -7 5 -6 15 4 20 20 19 23 -15 58 -16 16
-30 26 -30 22z"/>
</g>
</svg>
