<?xml version="1.0" standalone="no"?>
<!DOCTYPE svg PUBLIC "-//W3C//DTD SVG 20010904//EN"
 "http://www.w3.org/TR/2001/REC-SVG-20010904/DTD/svg10.dtd">
<svg version="1.0" xmlns="http://www.w3.org/2000/svg"
 width="640.000000pt" height="960.000000pt" viewBox="0 0 640.000000 960.000000"
 preserveAspectRatio="xMidYMid meet">
<metadata>
Created by potrace 1.16, written by Peter Selinger 2001-2019
</metadata>
<g transform="translate(0.000000,960.000000) scale(0.100000,-0.100000)"
fill="#000000" stroke="none">
<path d="M0 7945 l0 -1655 21 0 c11 0 29 -5 40 -10 13 -8 19 -7 19 0 0 7 6 8
19 1 21 -12 31 -5 31 19 0 26 20 38 70 42 25 2 54 9 65 15 11 5 32 13 46 16
14 4 38 18 54 33 19 18 30 22 35 14 10 -15 51 5 47 23 -1 9 19 11 78 8 61 -2
90 -9 123 -27 46 -26 72 -30 72 -13 0 8 5 8 15 -1 9 -7 15 -29 15 -50 0 -21 3
-45 6 -54 8 -20 33 -21 40 -1 4 9 18 15 33 14 l26 -1 -24 -7 c-14 -4 -26 -12
-29 -19 -5 -17 32 -15 76 5 20 9 48 20 62 24 20 5 17 7 -17 8 -24 0 -43 6 -43
11 0 6 -19 11 -42 12 -24 1 -8 4 37 7 59 5 81 3 83 -6 2 -8 19 -13 40 -12 59
1 76 12 78 49 1 21 10 41 23 51 12 10 21 24 21 32 0 8 18 22 40 31 28 11 40
22 40 36 0 11 6 20 14 20 7 0 16 9 19 21 7 26 44 22 39 -4 -3 -20 2 -21 28 -5
16 10 24 10 40 0 29 -18 48 -15 55 8 3 11 15 20 26 20 12 0 19 7 19 20 0 24
15 27 24 4 12 -31 23 -3 18 46 -4 46 -3 50 17 50 11 0 21 6 21 13 0 20 73 37
89 20 18 -19 49 -16 69 8 9 12 23 28 31 36 13 13 12 17 -8 33 -23 17 -23 17
39 23 85 9 100 9 100 -3 0 -5 -18 -10 -40 -10 -22 0 -40 -4 -40 -10 0 -5 18
-10 39 -10 34 0 41 4 53 30 10 23 20 30 40 30 14 0 28 5 30 11 2 7 42 11 107
11 101 1 103 1 112 27 12 30 -9 52 -42 44 -14 -4 -17 -8 -9 -13 9 -5 8 -9 -2
-12 -8 -3 -22 0 -32 7 -17 13 -16 14 7 29 13 9 31 14 40 10 8 -3 25 -1 36 6
19 10 21 8 21 -22 1 -41 23 -73 45 -64 21 8 10 26 -16 26 -15 0 -20 6 -17 23
3 23 -1 23 105 14 50 -4 52 -4 62 26 14 38 14 37 -3 37 -8 0 -16 -11 -18 -25
-2 -17 -7 -22 -16 -17 -10 7 -9 15 4 41 l16 33 79 -7 79 -7 0 31 c0 35 15 42
23 10 5 -18 10 -19 44 -13 21 4 42 13 46 20 5 9 26 14 53 14 28 0 43 -4 39
-10 -9 -14 1 -13 35 5 16 8 34 24 40 34 9 17 18 19 65 14 34 -4 55 -2 55 4 0
13 112 37 145 31 14 -3 23 -3 21 0 -3 2 2 18 10 34 8 16 12 38 9 48 -3 11 -1
29 5 40 11 21 12 21 31 4 11 -10 19 -12 19 -6 0 17 25 15 39 -2 17 -20 96 -17
96 4 0 10 -10 15 -27 15 -37 -1 -45 23 -12 35 14 6 34 10 45 10 10 0 19 5 19
11 0 7 14 8 40 4 41 -7 54 7 29 32 -8 8 -8 13 0 17 6 4 11 4 11 0 0 -4 10 2
23 13 35 33 87 34 87 3 0 -23 8 -25 33 -6 20 15 22 37 5 54 -9 9 -9 12 0 12 7
0 12 14 13 33 l1 32 10 -32 c6 -18 17 -33 25 -33 11 0 11 5 3 20 -8 15 -7 21
7 29 10 5 20 8 23 8 3 -1 24 4 46 12 37 12 42 18 48 52 6 39 14 44 58 41 18
-2 98 69 98 87 0 6 6 11 14 11 10 0 14 9 13 28 -2 24 1 27 28 24 21 -2 26 0
16 7 -11 7 -7 13 18 25 17 9 31 21 31 26 0 6 9 10 20 10 10 0 24 9 30 20 6 11
15 20 21 20 22 0 100 53 89 60 -7 5 1 10 21 13 74 13 99 20 99 27 0 4 8 10 18
14 9 3 24 9 32 14 39 23 61 32 78 32 10 0 28 9 40 20 12 11 29 20 39 20 28 0
96 21 89 27 -6 6 23 32 37 33 4 0 7 -9 7 -20 0 -13 7 -20 20 -20 11 0 20 6 20
14 0 17 22 26 66 26 28 0 34 -4 35 -22 0 -20 2 -19 11 7 14 40 16 41 32 20 11
-16 17 -17 29 -7 15 13 92 7 112 -8 11 -8 95 -25 107 -22 5 1 7 -3 5 -9 -1 -6
4 -14 12 -17 10 -3 12 0 8 11 -8 21 33 10 55 -16 9 -10 21 -16 26 -13 6 3 12
-1 16 -9 3 -8 15 -15 26 -15 11 0 20 -4 20 -8 0 -5 19 -17 43 -27 139 -58 172
-79 161 -97 -3 -4 -2 -8 3 -7 21 4 33 -2 33 -17 0 -8 4 -13 9 -10 5 3 12 -2
15 -11 6 -14 8 -14 21 3 15 20 20 14 27 -31 3 -15 10 -19 29 -17 22 3 32 -6
60 -49 42 -66 97 -122 113 -116 19 7 30 -3 51 -51 14 -32 26 -45 46 -49 18 -3
26 -10 22 -19 -3 -8 3 -16 13 -20 81 -27 94 -41 94 -100 0 -19 5 -34 10 -34 6
0 10 9 10 20 0 23 19 28 21 5 1 -8 3 -19 4 -25 1 -5 3 -14 4 -20 0 -5 8 -10
16 -10 18 0 20 27 3 32 -7 3 -9 12 -5 22 7 17 9 17 30 3 12 -8 21 -22 19 -31
-2 -9 2 -16 8 -16 5 0 10 5 10 10 0 6 7 10 15 10 10 0 15 -11 16 -32 1 -19 3
-24 5 -13 27 136 35 152 48 98 18 -74 27 -83 83 -83 28 0 54 -4 57 -9 10 -16
100 -9 113 8 10 12 12 264 13 1104 l0 1087 -3200 0 -3200 0 0 -1655z"/>
<path d="M3587 6010 c-140 -35 -267 -106 -352 -194 -54 -57 -97 -122 -74 -114
7 2 21 21 32 41 10 20 41 57 69 82 60 53 200 135 233 135 13 0 36 5 51 10 15
6 29 9 31 7 8 -9 -10 -37 -25 -37 -9 0 -32 -11 -51 -24 -20 -13 -56 -35 -81
-49 -64 -36 -190 -146 -224 -195 -30 -44 -46 -53 -46 -25 0 28 -47 -75 -66
-144 -16 -58 -16 -77 -6 -158 13 -104 45 -202 98 -301 20 -36 34 -66 32 -67
-1 -2 -43 -13 -93 -25 -49 -13 -128 -41 -174 -63 -46 -21 -85 -38 -86 -37 -1
2 -29 52 -61 111 -81 148 -130 195 -239 230 -70 22 -190 39 -234 32 -129 -21
-196 -48 -286 -115 -196 -148 -298 -394 -255 -620 38 -200 209 -349 436 -379
81 -11 171 -4 227 18 38 15 43 10 50 -43 14 -102 101 -276 196 -394 28 -34 51
-68 51 -75 0 -19 -212 -85 -328 -101 -135 -20 -283 -36 -332 -36 -23 0 -53 -6
-69 -14 -45 -24 -61 -112 -28 -153 19 -25 273 -6 551 42 82 14 150 24 151 23
5 -5 -50 -158 -77 -218 -30 -66 -93 -132 -176 -183 -84 -53 -100 -72 -154
-174 -69 -132 -91 -215 -86 -321 5 -111 36 -189 98 -249 l45 -44 -45 2 c-25 2
-56 7 -70 12 -14 5 -70 11 -124 13 -87 2 -104 0 -138 -19 -35 -20 -38 -25 -33
-52 3 -16 11 -33 18 -37 19 -12 77 -9 77 4 0 18 48 -32 53 -56 4 -20 4 -20 6
2 2 38 51 20 51 -20 0 -10 7 -18 15 -18 9 0 18 -8 22 -17 11 -31 66 -83 87
-82 17 1 18 2 4 6 -10 2 -18 14 -18 25 0 18 4 20 30 14 17 -3 39 -2 48 2 9 5
31 16 49 25 25 12 34 13 42 3 12 -14 3 -30 -21 -39 -39 -14 -8 -57 41 -57 28
0 37 -20 12 -27 -12 -3 -21 -8 -21 -11 0 -10 36 -31 54 -32 11 0 36 -18 57
-40 21 -22 43 -40 48 -40 15 0 41 30 41 48 0 9 11 30 25 46 14 16 25 32 25 36
0 4 9 19 21 34 l21 26 19 -24 c12 -15 16 -31 12 -42 -4 -12 -3 -15 5 -10 7 4
12 14 12 22 0 8 4 14 8 14 11 0 49 -36 54 -52 4 -10 8 -10 23 2 14 11 19 12
22 3 3 -7 11 -13 18 -13 7 0 15 -6 17 -12 3 -9 10 -8 22 5 18 17 67 14 75 -5
1 -5 33 -6 72 -2 61 6 69 5 69 -11 0 -12 5 -15 18 -10 38 15 123 12 159 -6 27
-14 39 -15 53 -7 14 9 22 9 36 -3 15 -13 16 -12 9 11 l-8 25 22 -20 c18 -15
24 -16 30 -6 11 17 114 18 119 2 2 -6 10 -11 18 -11 8 0 14 -6 14 -12 1 -14
45 -68 56 -68 3 0 3 17 -1 37 -15 77 -15 114 0 119 8 3 52 1 97 -6 125 -18
148 -19 148 -9 0 15 28 10 38 -7 5 -9 31 -20 58 -26 76 -14 157 -29 181 -33
12 -2 27 -6 34 -10 6 -4 26 -11 44 -15 26 -6 32 -4 28 6 -2 7 -11 10 -19 7
-16 -6 -19 13 -4 22 6 4 8 11 5 16 -10 15 21 10 35 -5 6 -8 18 -12 27 -9 9 4
29 -9 54 -35 58 -62 111 -94 142 -86 17 4 41 -1 69 -14 24 -12 72 -26 108 -32
63 -10 262 -55 385 -86 33 -8 88 -19 122 -24 62 -8 123 -40 123 -63 0 -7 25
-34 56 -62 30 -27 68 -71 84 -96 16 -25 58 -68 92 -97 35 -28 74 -62 89 -75
14 -13 38 -27 55 -29 16 -3 43 -10 59 -16 51 -18 115 -35 130 -35 8 0 15 -4
15 -8 0 -4 21 -9 46 -11 45 -3 45 -3 40 24 -3 16 -1 28 4 28 18 0 10 22 -10
27 -11 3 -18 9 -15 13 7 12 -44 62 -56 54 -7 -4 -10 -1 -7 7 4 12 -67 89 -83
89 -3 0 -17 10 -31 23 -50 46 -92 77 -103 77 -6 0 -26 15 -44 34 -18 19 -39
32 -46 30 -7 -3 -15 2 -18 10 -4 9 -14 12 -26 9 -23 -6 -28 6 -10 24 13 13
-90 33 -170 33 -28 0 -67 6 -85 14 -34 14 -131 94 -224 184 -29 29 -64 59 -77
68 -14 9 -25 24 -25 33 0 20 51 41 82 34 13 -3 21 -4 18 -1 -12 13 -101 78
-106 78 -4 0 -35 20 -71 45 -35 25 -67 45 -71 45 -4 0 -20 7 -36 15 -20 10
-44 14 -70 10 -46 -6 -59 0 -133 60 -27 22 -60 47 -73 57 -24 16 -25 17 -6 31
19 14 18 16 -23 43 l-43 28 -26 -29 c-25 -29 -25 -29 -18 -5 28 99 29 124 7
182 -17 43 -39 75 -88 123 -37 36 -70 65 -75 65 -5 0 -28 14 -51 31 -117 85
-232 142 -305 151 -29 4 -68 92 -82 188 -6 36 -14 83 -20 105 -15 62 -12 217
4 257 l15 34 88 -29 c124 -41 470 -127 509 -127 24 0 37 6 45 21 11 21 14 122
4 138 -3 5 -26 14 -52 20 -322 73 -385 91 -483 141 l-43 22 79 34 c164 72 260
158 321 291 29 63 34 154 10 198 -18 34 -14 39 -51 -80 -14 -44 -32 -89 -40
-100 -9 -11 -2 18 15 65 41 113 50 166 50 285 1 162 -40 289 -130 402 l-40 52
87 57 c207 138 310 298 347 544 31 202 9 325 -81 455 -74 107 -165 174 -321
236 -93 37 -115 40 -303 45 -130 3 -167 1 -233 -16z m-444 -2875 c12 -5 15
-10 7 -15 -8 -5 -8 -25 1 -76 22 -119 17 -180 -19 -256 -18 -37 -32 -71 -32
-75 0 -11 -60 -67 -66 -61 -2 3 1 18 7 34 7 16 14 38 15 49 2 11 6 31 9 45 2
14 -13 -11 -34 -56 -44 -92 -111 -158 -111 -108 0 8 -4 13 -9 10 -5 -3 -28 1
-51 9 -52 18 -49 19 -43 -4 3 -11 26 -28 55 -41 l51 -22 -34 -21 c-28 -18 -50
-22 -129 -23 -110 -1 -128 -5 -153 -40 -14 -19 -17 -35 -13 -60 4 -19 10 -34
15 -34 13 0 51 -76 51 -101 0 -29 -7 -40 -40 -62 -49 -34 -121 -12 -201 60
-50 45 -69 81 -69 131 0 31 5 41 25 52 14 7 25 19 25 26 0 7 8 10 21 7 39 -11
54 23 54 122 -1 99 -9 135 -30 135 -33 0 -22 92 14 114 5 3 19 25 31 48 39 75
92 148 124 172 27 21 69 34 166 50 39 7 343 -1 363 -9z m251 -134 c10 -10 28
-51 42 -91 53 -158 16 -324 -75 -335 -88 -11 -140 82 -141 253 0 78 16 131 52
169 28 30 97 32 122 4z m1175 -938 c36 -8 78 -25 95 -39 17 -14 67 -51 111
-83 44 -32 87 -66 94 -75 14 -17 12 -17 -35 -11 -27 4 -60 12 -74 17 -35 14
-289 79 -320 83 -14 1 -27 3 -29 4 -2 0 3 11 11 24 16 25 8 84 -14 99 -17 12
74 1 161 -19z"/>
<path d="M1905 2530 c-69 -4 -152 -16 -195 -28 -41 -12 -106 -26 -145 -33
-133 -22 -266 -74 -325 -128 -40 -36 -33 -53 14 -40 22 6 50 6 78 0 23 -5 77
-12 118 -16 41 -3 93 -10 115 -15 22 -5 78 -16 125 -25 47 -9 98 -21 113 -27
25 -9 31 -8 55 15 26 24 122 73 204 103 36 12 39 12 64 -11 15 -14 34 -25 43
-25 15 1 15 2 0 13 -9 7 -14 17 -12 24 2 6 -4 13 -14 16 -14 4 -13 5 5 6 12 0
22 4 22 7 0 3 -25 44 -56 90 -35 53 -62 83 -72 82 -10 0 -71 -4 -137 -8z"/>
</g>
</svg>
