<?xml version="1.0" standalone="no"?>
<!DOCTYPE svg PUBLIC "-//W3C//DTD SVG 20010904//EN"
 "http://www.w3.org/TR/2001/REC-SVG-20010904/DTD/svg10.dtd">
<svg version="1.0" xmlns="http://www.w3.org/2000/svg"
 width="300.000000pt" height="277.000000pt" viewBox="0 0 300.000000 277.000000"
 preserveAspectRatio="xMidYMid meet">
<metadata>
Created by potrace 1.10, written by Peter Selinger 2001-2011
</metadata>
<g transform="translate(0.000000,277.000000) scale(0.100000,-0.100000)"
fill="#990000" stroke="none">
<path d="M1667 2500 c-53 -14 -92 -35 -138 -77 -42 -38 -77 -93 -59 -93 5 0
10 4 10 9 0 23 93 110 137 128 56 24 152 37 172 24 15 -10 -1 -14 -90 -26 -95
-12 -201 -104 -228 -199 -5 -17 -10 -24 -10 -16 -1 12 -3 12 -9 2 -14 -22 5
-122 35 -183 l29 -57 -41 -7 c-22 -3 -62 -17 -90 -30 -27 -13 -49 -23 -50 -22
-5 26 -65 123 -84 136 -69 49 -173 54 -258 11 -201 -101 -218 -378 -29 -466
54 -25 151 -33 186 -14 15 8 19 5 24 -26 10 -53 39 -114 80 -167 20 -26 36
-49 36 -51 0 -14 -141 -47 -235 -57 -116 -11 -139 -22 -133 -64 2 -16 12 -21
46 -23 40 -3 231 20 280 34 l23 7 -21 -53 c-31 -79 -37 -87 -93 -131 -81 -64
-127 -150 -127 -236 0 -48 29 -114 59 -135 10 -7 19 -17 20 -23 0 -5 6 -11 11
-11 21 -3 22 -4 10 -19 -7 -8 -16 -13 -20 -10 -5 3 -10 1 -12 -5 -2 -6 -9 -1
-16 11 -8 12 -9 18 -3 14 6 -3 11 0 11 8 0 8 -12 18 -27 22 -55 14 -83 16 -83
6 0 -6 16 -11 35 -11 22 0 35 -5 35 -13 0 -25 45 -58 76 -55 25 1 124 -20 124
-27 0 -2 -7 -16 -15 -31 -8 -16 -18 -45 -21 -64 -4 -19 -11 -38 -17 -41 -5 -4
-6 -12 -2 -19 12 -19 35 16 35 51 0 39 38 101 59 95 73 -22 199 -33 387 -36
12 0 21 -6 20 -12 -2 -20 27 -108 36 -108 10 0 10 -4 -7 54 -8 27 -15 53 -15
58 0 4 19 7 43 6 91 -5 198 2 192 12 -3 6 -3 11 2 11 47 8 54 4 99 -52 26 -33
50 -59 54 -59 4 0 29 -32 55 -70 45 -66 65 -89 65 -75 0 12 -94 141 -140 190
-25 28 -56 67 -69 88 -21 34 -57 53 -45 24 8 -22 -72 -40 -186 -42 -148 -2
-384 12 -388 23 -2 6 -11 8 -20 5 -10 -2 -38 1 -62 7 -25 6 -51 12 -58 13 -7
2 -18 9 -24 15 -7 7 -21 12 -31 12 -11 0 -48 28 -82 63 -84 85 -91 127 -39
245 24 55 39 69 28 27 -10 -39 9 -29 34 17 12 24 42 64 65 89 41 45 46 47 112
54 63 7 232 -4 323 -21 17 -4 32 -2 32 3 0 13 -139 44 -197 44 -26 0 -81 -3
-120 -7 l-73 -6 0 30 c0 17 4 33 9 36 4 3 6 -5 4 -18 -3 -13 1 -27 8 -31 7 -5
10 -4 5 3 -3 6 -2 13 4 17 16 10 12 45 -5 45 -8 0 -15 6 -15 14 0 14 -36 32
-53 28 -4 -1 -31 -4 -60 -7 l-52 -4 34 15 c18 8 39 13 47 10 7 -3 14 -1 16 3
2 5 21 17 43 27 49 23 54 45 21 89 -28 36 -86 158 -86 179 0 7 -9 21 -20 31
-17 15 -25 16 -65 6 -87 -22 -189 20 -232 95 -31 56 25 226 98 295 36 34 122
69 136 56 3 -4 15 -2 25 4 14 7 23 8 30 1 6 -6 16 -8 23 -6 17 7 69 -47 101
-106 15 -28 33 -50 40 -50 12 0 40 10 89 31 11 5 38 15 60 22 38 13 52 33 42
60 -2 7 -4 15 -3 18 0 4 -8 17 -19 29 -27 30 -28 138 -1 194 26 55 80 111 130
135 87 40 276 61 296 32 3 -4 17 -11 31 -14 34 -9 105 -78 122 -120 9 -21 14
-63 12 -114 -1 -65 -7 -91 -30 -139 -28 -58 -62 -101 -77 -96 -5 1 -8 -2 -8
-7 0 -4 -18 -20 -40 -35 -22 -14 -40 -33 -40 -41 0 -9 14 -41 32 -72 28 -50
33 -67 34 -138 1 -63 -3 -91 -18 -126 -29 -62 -75 -128 -121 -170 l-38 -36 30
-32 c37 -40 38 -43 7 -35 -39 9 -64 -4 -76 -41 -14 -41 -8 -131 9 -164 7 -13
14 -41 15 -61 0 -21 4 -36 9 -33 4 2 7 -3 7 -11 0 -8 5 -18 11 -22 14 -8 8 45
-16 136 -15 59 -17 161 -3 175 3 3 21 -1 40 -9 38 -16 228 -66 251 -66 17 0
30 40 21 63 -3 9 -45 25 -107 40 -56 14 -120 34 -142 43 -39 16 -39 17 -15 24
105 29 190 120 190 204 0 48 -16 54 -25 9 -12 -64 -69 -148 -119 -175 -12 -6
-2 10 23 38 112 125 132 300 49 415 -16 22 -28 42 -26 43 2 1 19 12 39 24 91
55 151 156 164 278 16 139 -66 256 -209 300 -64 19 -199 26 -249 14z m-606
-396 c-24 -7 -62 -28 -86 -46 -44 -34 -114 -144 -116 -182 0 -11 -5 -30 -10
-41 -18 -39 0 75 19 119 39 86 142 165 217 164 11 0 0 -6 -24 -14z m4 -805
c-22 -4 -56 -7 -75 -7 -32 1 -31 2 10 8 25 4 59 7 75 7 25 1 23 -1 -10 -8z
m862 -15 c-3 -3 -12 -4 -19 -1 -8 3 -5 6 6 6 11 1 17 -2 13 -5z m47 -13 c4 -5
-3 -7 -14 -4 -23 6 -26 13 -6 13 8 0 17 -4 20 -9z m-74 -11 c0 -5 -5 -10 -11
-10 -5 0 -7 5 -4 10 3 6 8 10 11 10 2 0 4 -4 4 -10z m151 -35 c-1 -11 -20 -14
-35 -7 -10 5 15 23 27 19 5 -1 8 -7 8 -12z"/>
<path d="M521 2053 c-1 -17 9 -20 54 -12 l40 7 -42 -2 c-24 -1 -45 3 -47 9 -3
6 -5 5 -5 -2z"/>
<path d="M440 2035 c-14 -8 -33 -14 -43 -15 -10 0 -15 -4 -12 -10 9 -14 31
-12 47 3 7 8 27 19 43 25 22 7 24 11 10 11 -11 0 -31 -6 -45 -14z"/>
<path d="M620 2036 c0 -2 15 -9 33 -15 29 -10 30 -9 13 4 -18 14 -46 20 -46
11z"/>
<path d="M328 2003 c7 -3 16 -2 19 1 4 3 -2 6 -13 5 -11 0 -14 -3 -6 -6z"/>
<path d="M1301 1876 c-7 -8 -10 -20 -7 -25 4 -5 1 -13 -5 -17 -8 -4 -9 -3 -5
4 4 7 5 12 2 12 -10 0 -35 -63 -29 -73 3 -5 1 -7 -4 -4 -6 4 -13 1 -16 -7 -3
-8 1 -17 9 -20 9 -4 19 6 29 30 8 19 24 49 36 65 23 33 14 64 -10 35z"/>
<path d="M1357 1821 c-4 -17 -3 -21 5 -13 5 5 8 16 6 23 -3 8 -7 3 -11 -10z"/>
<path d="M1321 1784 c-6 -15 -9 -29 -6 -32 3 -3 5 0 5 7 0 7 4 10 9 6 14 -8
23 13 13 30 -7 13 -10 11 -21 -11z"/>
<path d="M1235 1710 c3 -5 8 -10 11 -10 2 0 4 5 4 10 0 6 -5 10 -11 10 -5 0
-7 -4 -4 -10z"/>
<path d="M1282 1684 c-7 -8 -8 -14 -3 -14 10 0 25 19 20 25 -2 1 -10 -3 -17
-11z"/>
<path d="M395 1660 c-3 -5 -1 -10 4 -10 6 0 11 5 11 10 0 6 -2 10 -4 10 -3 0
-8 -4 -11 -10z"/>
<path d="M420 1662 c0 -5 7 -9 15 -9 8 0 15 4 15 9 0 4 -7 8 -15 8 -8 0 -15
-4 -15 -8z"/>
<path d="M861 1591 c-8 -5 -19 -8 -25 -7 -6 2 -8 1 -4 -1 9 -5 -12 -53 -24
-53 -4 0 -8 -10 -7 -22 0 -15 3 -18 6 -8 7 17 19 33 55 71 26 29 26 37 -1 20z"/>
<path d="M879 1533 c7 -29 7 -37 -3 -116 -4 -30 -2 -46 4 -42 6 3 10 -4 10
-16 0 -18 2 -19 15 -9 20 16 19 30 -1 30 -12 0 -14 7 -9 29 9 41 10 125 1 139
-13 22 -25 12 -17 -15z"/>
<path d="M918 1524 c2 -19 8 -34 13 -34 5 0 9 -5 9 -11 0 -5 -4 -8 -9 -5 -4 3
-6 -5 -4 -18 3 -13 0 -27 -6 -30 -13 -8 -15 -36 -2 -36 4 0 14 20 21 44 9 34
9 52 0 80 -15 48 -27 53 -22 10z"/>
<path d="M2164 1475 c-3 -8 -4 -20 -2 -27 3 -7 7 -1 10 15 6 29 1 36 -8 12z"/>
<path d="M2202 1478 c-7 -7 -12 -16 -12 -22 0 -6 5 -5 12 2 7 7 20 12 30 12
10 0 18 5 18 10 0 14 -33 13 -48 -2z"/>
<path d="M2242 1393 c-21 -57 -22 -63 -7 -63 8 0 14 3 13 8 -1 4 2 22 6 40 10
42 2 52 -12 15z"/>
<path d="M950 1396 c0 -7 -9 -25 -21 -40 -11 -14 -16 -26 -10 -26 13 0 51 49
51 66 0 8 -4 14 -10 14 -5 0 -10 -6 -10 -14z"/>
<path d="M465 1379 c-4 -6 -5 -12 -2 -15 2 -3 7 2 10 11 7 17 1 20 -8 4z"/>
<path d="M390 1360 c-30 -11 -72 -22 -92 -25 -20 -4 -42 -13 -49 -21 -15 -18
-14 -18 72 10 41 13 86 26 102 30 15 3 27 11 27 16 0 6 -1 10 -2 9 -2 0 -28
-9 -58 -19z"/>
<path d="M2131 1354 c0 -11 3 -14 6 -6 3 7 2 16 -1 19 -3 4 -6 -2 -5 -13z"/>
<path d="M877 1323 c-4 -3 -7 -24 -7 -45 0 -31 -3 -38 -20 -38 -11 0 -20 -4
-20 -10 0 -5 16 -10 35 -10 33 0 34 1 24 24 -8 18 -8 33 -1 55 10 29 5 40 -11
24z"/>
<path d="M2148 1306 c-19 -14 -25 -32 -8 -21 6 3 10 1 10 -6 0 -10 3 -10 11
-2 6 6 9 18 7 26 -2 13 -6 14 -20 3z"/>
<path d="M2225 1293 c-15 -78 -27 -118 -38 -125 -21 -13 -57 -9 -57 7 0 13 -3
13 -20 3 -25 -16 -26 -31 -1 -23 11 3 22 1 26 -5 3 -5 19 -10 35 -10 38 0 61
41 66 121 3 62 -2 78 -11 32z"/>
<path d="M2130 1250 c0 -5 5 -10 10 -10 6 0 10 5 10 10 0 6 -4 10 -10 10 -5 0
-10 -4 -10 -10z"/>
<path d="M1346 1194 c-5 -14 -4 -15 9 -4 17 14 19 20 6 20 -5 0 -12 -7 -15
-16z"/>
<path d="M974 1155 c-10 -8 -14 -15 -8 -15 6 0 17 7 24 15 16 19 9 19 -16 0z"/>
<path d="M1345 1112 c-11 -10 -26 -28 -33 -40 -16 -30 -25 -99 -12 -107 6 -4
10 7 10 25 0 35 22 84 53 118 24 26 11 29 -18 4z"/>
<path d="M1684 1119 c-5 -9 -2 -10 9 -6 10 3 17 2 17 -3 0 -6 7 -10 15 -10 8
0 15 5 15 10 0 6 -4 10 -9 10 -5 0 -16 3 -24 6 -8 3 -18 0 -23 -7z"/>
<path d="M1411 1101 c31 -25 33 -98 4 -156 -16 -32 -25 -39 -45 -37 -13 1 -35
13 -49 25 -14 13 -22 16 -19 8 8 -27 55 -54 81 -47 55 13 92 162 51 207 -9 10
-24 19 -32 19 -9 0 -6 -7 9 -19z"/>
<path d="M1538 1113 c-9 -2 -24 -23 -33 -45 -20 -51 -12 -137 17 -173 22 -28
70 -34 93 -12 15 16 36 85 31 107 -15 74 -20 91 -34 103 -20 18 -51 26 -74 20z
m55 -27 c21 -22 40 -101 33 -139 -8 -43 -37 -71 -65 -62 -31 10 -44 43 -45
111 -1 84 37 129 77 90z"/>
<path d="M1601 944 c0 -11 3 -14 6 -6 3 7 2 16 -1 19 -3 4 -6 -2 -5 -13z"/>
<path d="M1030 1031 c-44 -23 -72 -70 -68 -112 3 -32 3 -32 14 -8 7 13 17 38
24 56 7 18 20 35 29 38 9 3 27 14 41 25 33 26 7 27 -40 1z"/>
<path d="M1152 960 c1 -19 -2 -53 -6 -75 -6 -38 -6 -38 11 10 10 28 15 52 12
55 -4 3 -9 14 -12 25 -3 11 -5 5 -5 -15z"/>
<path d="M1386 955 c-4 -14 -11 -23 -16 -20 -6 3 -7 -1 -4 -10 6 -14 9 -14 19
-3 17 18 29 58 17 58 -6 0 -13 -11 -16 -25z"/>
<path d="M1828 974 c-11 -11 5 -45 21 -43 33 3 43 -1 37 -16 -4 -11 2 -15 25
-15 17 0 32 -6 35 -15 4 -8 13 -15 21 -15 8 0 11 -5 8 -10 -3 -6 5 -14 19 -20
17 -6 26 -17 26 -30 0 -13 4 -18 11 -14 8 4 8 1 1 -12 -6 -11 -8 -32 -5 -48 4
-18 2 -27 -4 -23 -6 4 -15 -5 -21 -18 -14 -31 -4 -32 24 -2 41 44 55 74 48
103 -7 28 -52 74 -108 109 -17 11 -37 25 -44 33 -8 7 -30 19 -49 27 -41 17
-38 17 -45 9z"/>
<path d="M1101 908 c0 -18 4 -42 9 -53 6 -15 9 -9 9 27 1 27 6 48 14 51 6 3 2
6 -10 6 -20 1 -23 -4 -22 -31z"/>
<path d="M1071 894 c0 -11 3 -14 6 -6 3 7 2 16 -1 19 -3 4 -6 -2 -5 -13z"/>
<path d="M928 863 c-16 -2 -28 -9 -28 -15 0 -6 -6 -6 -15 2 -12 10 -18 10 -30
0 -12 -10 -15 -10 -15 0 0 8 -7 10 -17 5 -36 -14 -159 -38 -188 -37 -18 1 -25
-2 -17 -6 13 -9 -43 -41 -83 -48 -20 -3 -20 -3 -1 11 11 8 24 15 30 15 5 0 7
2 4 5 -7 7 -124 -43 -168 -72 -46 -31 -35 -29 26 3 44 24 60 26 155 26 110 0
245 -17 266 -34 7 -6 14 -5 18 2 8 14 120 70 139 70 11 0 8 10 -11 40 -15 22
-29 39 -32 39 -3 -1 -18 -4 -33 -6z m52 -41 c0 -4 -33 -22 -73 -40 -58 -27
-79 -32 -107 -27 -19 4 -57 7 -85 7 -65 -1 -117 7 -111 17 3 5 17 6 31 4 14
-3 41 2 60 11 26 13 40 14 54 6 41 -21 111 -5 111 25 0 18 5 18 31 5 15 -8 23
-7 35 5 12 11 20 12 35 5 10 -6 19 -14 19 -18z m-166 -7 c-20 -15 -36 -15 -35
0 0 10 42 25 50 18 3 -2 -4 -10 -15 -18z"/>
<path d="M1075 851 c-3 -5 -2 -12 3 -15 5 -3 9 1 9 9 0 17 -3 19 -12 6z"/>
<path d="M1086 790 c18 -35 82 -90 104 -90 11 1 9 4 -5 12 -33 18 -76 61 -86
86 -5 12 -13 22 -18 22 -5 0 -3 -13 5 -30z"/>
<path d="M1000 771 c0 -10 19 -25 25 -20 1 2 -3 10 -11 17 -8 7 -14 8 -14 3z"/>
<path d="M1265 750 c3 -5 8 -10 11 -10 2 0 4 5 4 10 0 6 -5 10 -11 10 -5 0 -7
-4 -4 -10z"/>
<path d="M1246 715 c-11 -8 -15 -15 -9 -15 6 0 16 7 23 15 16 19 11 19 -14 0z"/>
<path d="M2080 722 c0 -5 -9 -18 -20 -30 -14 -15 -17 -22 -7 -22 37 0 120 -34
182 -76 82 -55 80 -53 73 -59 -3 -3 -24 2 -48 10 -24 8 -45 13 -48 10 -3 -3
-10 -1 -17 5 -6 5 -42 15 -79 22 -66 12 -67 14 -64 40 4 24 1 28 -19 28 -14 0
-23 -6 -23 -15 0 -8 7 -15 15 -15 8 0 15 -9 15 -20 0 -11 3 -20 8 -20 13 0 62
-47 55 -54 -3 -3 1 -6 10 -6 10 0 17 -4 17 -9 0 -15 84 0 98 17 11 14 12 14
12 0 0 -8 7 -22 17 -29 15 -13 15 -12 4 8 -10 19 -9 22 5 16 9 -3 28 -6 43 -7
18 -1 26 -6 25 -18 -1 -10 2 -16 6 -13 4 2 29 -12 55 -33 38 -29 44 -38 29
-41 -10 -2 -20 2 -22 8 -2 6 -14 8 -28 5 -17 -4 -26 -1 -30 11 -4 9 -9 12 -13
7 -4 -7 -36 -4 -90 9 -93 22 -124 18 -40 -4 99 -27 235 -57 256 -57 24 0 123
-94 123 -116 0 -8 3 -14 8 -14 4 0 26 -17 48 -39 24 -23 46 -36 53 -31 9 5 8
10 -4 20 -8 7 -15 9 -15 6 0 -4 -7 -1 -15 6 -8 7 -20 18 -27 24 -7 6 -20 21
-28 34 -22 32 -117 130 -127 130 -4 0 -28 20 -53 43 -25 23 -57 49 -70 58 -13
8 -20 20 -17 27 10 15 83 -19 178 -82 42 -28 84 -57 95 -64 16 -11 13 -12 -26
-7 -31 4 -42 3 -35 -4 6 -6 24 -12 40 -13 17 -1 33 -7 37 -13 4 -5 8 0 8 12 0
15 -15 32 -47 54 -27 17 -53 37 -58 43 -16 17 -64 49 -130 86 -33 18 -112 67
-176 107 -111 70 -139 83 -139 65z m96 -54 c26 -17 42 -34 36 -36 -6 -2 -27 8
-45 22 -19 14 -46 26 -60 26 -15 0 -27 5 -27 10 0 20 51 9 96 -22z m154 -117
c0 -10 -11 -5 -30 14 -37 36 -38 38 0 17 16 -9 30 -23 30 -31z m-153 -9 c18
-2 31 -8 28 -12 -8 -14 -66 -3 -83 15 -16 17 -16 17 3 10 11 -4 35 -10 52 -13z"/>
<path d="M930 710 c0 -5 -7 -10 -15 -10 -9 0 -12 -6 -9 -15 5 -11 -3 -17 -25
-21 -17 -4 -31 -10 -31 -14 0 -4 20 -3 45 3 26 6 40 14 34 18 -6 4 -8 12 -4
19 5 8 14 5 31 -11 13 -12 27 -20 30 -16 3 3 -3 13 -15 23 -11 10 -18 21 -15
26 3 4 -2 8 -10 8 -9 0 -16 -4 -16 -10z"/>
<path d="M743 646 c-29 -28 -53 -56 -53 -60 0 -5 15 6 33 25 19 19 46 43 60
54 26 19 35 36 20 34 -5 0 -32 -24 -60 -53z"/>
<path d="M1000 678 c0 -10 5 -18 11 -18 8 0 8 -5 -1 -15 -10 -13 -9 -15 9 -15
26 0 27 11 1 41 -16 20 -19 21 -20 7z"/>
<path d="M830 669 c0 -5 5 -7 10 -4 6 3 10 8 10 11 0 2 -4 4 -10 4 -5 0 -10
-5 -10 -11z"/>
<path d="M968 645 c-8 -14 9 -55 23 -55 8 0 8 4 1 13 -5 6 -12 21 -14 32 -2
11 -6 16 -10 10z"/>
<path d="M255 629 c-11 -17 1 -21 15 -4 8 9 8 15 2 15 -6 0 -14 -5 -17 -11z"/>
<path d="M898 623 c7 -3 16 -2 19 1 4 3 -2 6 -13 5 -11 0 -14 -3 -6 -6z"/>
<path d="M2065 620 c3 -5 11 -10 16 -10 6 0 7 5 4 10 -3 6 -11 10 -16 10 -6 0
-7 -4 -4 -10z"/>
<path d="M1020 609 c0 -5 5 -7 10 -4 6 3 10 8 10 11 0 2 -4 4 -10 4 -5 0 -10
-5 -10 -11z"/>
<path d="M1065 610 c3 -5 11 -10 16 -10 6 0 7 5 4 10 -3 6 -11 10 -16 10 -6 0
-7 -4 -4 -10z"/>
<path d="M1150 601 c0 -5 -10 -12 -22 -14 -20 -4 -19 -4 5 -6 18 -1 27 4 27
14 0 8 -2 15 -5 15 -3 0 -5 -4 -5 -9z"/>
<path d="M921 584 c-12 -14 -11 -16 4 -12 10 1 20 9 23 16 5 17 -10 15 -27 -4z"/>
<path d="M1040 592 c0 -12 19 -26 26 -19 2 2 -2 10 -11 17 -9 8 -15 8 -15 2z"/>
<path d="M296 564 c-5 -14 -4 -15 9 -4 17 14 19 20 6 20 -5 0 -12 -7 -15 -16z"/>
<path d="M745 570 c-3 -5 1 -10 9 -10 9 0 16 5 16 10 0 6 -4 10 -9 10 -6 0
-13 -4 -16 -10z"/>
<path d="M990 569 c0 -5 5 -7 10 -4 6 3 10 8 10 11 0 2 -4 4 -10 4 -5 0 -10
-5 -10 -11z"/>
<path d="M487 563 c-4 -3 -7 -11 -7 -17 0 -6 5 -5 12 2 6 6 9 14 7 17 -3 3 -9
2 -12 -2z"/>
<path d="M1085 560 c3 -5 8 -10 11 -10 2 0 4 5 4 10 0 6 -5 10 -11 10 -5 0 -7
-4 -4 -10z"/>
<path d="M1185 560 c3 -5 10 -10 16 -10 5 0 9 5 9 10 0 6 -7 10 -16 10 -8 0
-12 -4 -9 -10z"/>
<path d="M585 550 c-3 -5 -2 -10 4 -10 5 0 16 -3 25 -6 10 -4 16 -1 16 7 0 7
-3 9 -7 6 -3 -4 -12 -2 -19 4 -8 7 -14 7 -19 -1z"/>
<path d="M838 548 c5 -5 16 -8 23 -6 8 3 3 7 -10 11 -17 4 -21 3 -13 -5z"/>
<path d="M1285 550 c3 -5 8 -10 11 -10 2 0 4 5 4 10 0 6 -5 10 -11 10 -5 0 -7
-4 -4 -10z"/>
<path d="M1960 541 c0 -5 -24 -8 -52 -6 -57 3 -44 -3 52 -25 30 -7 61 -15 68
-17 6 -3 12 -1 12 5 0 6 -18 13 -39 17 -29 5 -38 11 -34 21 3 8 2 14 -1 14 -3
0 -6 -4 -6 -9z"/>
<path d="M735 530 c3 -5 11 -10 16 -10 6 0 7 5 4 10 -3 6 -11 10 -16 10 -6 0
-7 -4 -4 -10z"/>
<path d="M1000 525 c0 -8 2 -15 4 -15 2 0 6 7 10 15 3 8 1 15 -4 15 -6 0 -10
-7 -10 -15z"/>
<path d="M185 520 c-3 -5 -1 -10 4 -10 6 0 11 5 11 10 0 6 -2 10 -4 10 -3 0
-8 -4 -11 -10z"/>
<path d="M900 519 c0 -7 -12 -9 -30 -7 -17 3 -33 1 -36 -4 -3 -4 13 -8 34 -8
26 0 42 5 46 15 3 8 1 15 -4 15 -6 0 -10 -5 -10 -11z"/>
<path d="M1135 520 c-3 -5 -1 -10 4 -10 6 0 11 5 11 10 0 6 -2 10 -4 10 -3 0
-8 -4 -11 -10z"/>
<path d="M1550 526 c0 -2 7 -7 16 -10 8 -3 12 -2 9 4 -6 10 -25 14 -25 6z"/>
<path d="M630 505 c-19 -22 -8 -25 13 -3 9 10 13 18 8 18 -5 0 -14 -7 -21 -15z"/>
<path d="M1787 506 c-4 -10 1 -12 14 -9 23 6 24 9 5 16 -8 3 -17 0 -19 -7z"/>
<path d="M978 488 c5 -5 16 -8 23 -6 8 3 3 7 -10 11 -17 4 -21 3 -13 -5z"/>
<path d="M1260 490 c0 -5 5 -10 11 -10 5 0 7 5 4 10 -3 6 -8 10 -11 10 -2 0
-4 -4 -4 -10z"/>
<path d="M2290 490 c-13 -8 -12 -10 3 -10 9 0 17 5 17 10 0 12 -1 12 -20 0z"/>
<path d="M1054 475 c10 -8 24 -11 29 -8 6 4 2 10 -9 14 -31 12 -40 9 -20 -6z"/>
<path d="M1300 480 c0 -5 5 -10 10 -10 6 0 10 5 10 10 0 6 -4 10 -10 10 -5 0
-10 -4 -10 -10z"/>
<path d="M2180 486 c0 -2 7 -7 16 -10 8 -3 12 -2 9 4 -6 10 -25 14 -25 6z"/>
<path d="M1100 470 c0 -5 5 -10 10 -10 6 0 10 5 10 10 0 6 -4 10 -10 10 -5 0
-10 -4 -10 -10z"/>
<path d="M1138 473 c7 -3 16 -2 19 1 4 3 -2 6 -13 5 -11 0 -14 -3 -6 -6z"/>
<path d="M446 432 c-3 -5 1 -9 9 -9 8 0 15 4 15 9 0 4 -4 8 -9 8 -6 0 -12 -4
-15 -8z"/>
<path d="M525 430 c3 -5 10 -10 16 -10 5 0 9 5 9 10 0 6 -7 10 -16 10 -8 0
-12 -4 -9 -10z"/>
<path d="M630 433 c0 -5 11 -8 24 -8 13 0 22 3 19 8 -2 4 -13 7 -24 7 -10 0
-19 -3 -19 -7z"/>
<path d="M710 428 c0 -12 14 -14 55 -8 l40 6 -47 5 c-27 2 -48 1 -48 -3z"/>
<path d="M1470 420 c-13 -8 -12 -10 3 -10 9 0 17 5 17 10 0 12 -1 12 -20 0z"/>
<path d="M1720 418 c0 -9 5 -20 10 -23 6 -3 10 -15 10 -25 0 -10 5 -22 10 -25
18 -11 10 42 -10 66 -16 20 -19 21 -20 7z"/>
<path d="M880 410 c0 -5 12 -10 28 -9 24 0 25 1 7 9 -27 12 -35 12 -35 0z"/>
<path d="M2185 410 c3 -5 8 -10 11 -10 2 0 4 5 4 10 0 6 -5 10 -11 10 -5 0 -7
-4 -4 -10z"/>
<path d="M970 399 c0 -5 5 -7 10 -4 6 3 10 8 10 11 0 2 -4 4 -10 4 -5 0 -10
-5 -10 -11z"/>
<path d="M1000 401 c0 -7 21 -11 53 -12 28 0 67 -2 85 -3 17 -2 32 0 32 5 0 5
-28 9 -62 9 -35 0 -73 3 -85 6 -14 4 -23 2 -23 -5z"/>
<path d="M1535 400 c3 -5 12 -7 20 -3 21 7 19 13 -6 13 -11 0 -18 -4 -14 -10z"/>
<path d="M1610 400 c0 -5 5 -10 11 -10 5 0 7 5 4 10 -3 6 -8 10 -11 10 -2 0
-4 -4 -4 -10z"/>
<path d="M1184 382 c3 -6 0 -13 -6 -16 -7 -3 19 -4 59 -1 44 3 73 1 75 -5 4
-13 48 -22 48 -9 0 14 73 10 94 -6 11 -8 31 -15 45 -14 l26 1 -25 8 -25 8 25
2 c31 3 -126 26 -239 36 -57 4 -82 3 -77 -4z"/>
<path d="M2225 360 c3 -5 8 -10 11 -10 2 0 4 5 4 10 0 6 -5 10 -11 10 -5 0 -7
-4 -4 -10z"/>
<path d="M2660 361 c0 -5 11 -16 25 -25 16 -11 23 -12 20 -3 -7 16 -45 40 -45
28z"/>
<path d="M1534 353 c8 -8 56 -10 56 -2 0 4 -14 7 -30 7 -17 -1 -28 -3 -26 -5z"/>
<path d="M2640 354 c0 -11 15 -25 95 -88 53 -41 84 -75 85 -90 0 -4 -16 -5
-36 -1 -25 4 -34 3 -29 -5 3 -5 11 -8 16 -5 5 4 9 2 9 -4 0 -6 7 -8 15 -5 9 4
15 0 15 -10 0 -13 4 -12 21 5 l21 21 -54 52 c-29 29 -71 65 -93 81 -22 16 -46
36 -52 44 -7 8 -13 10 -13 5z"/>
<path d="M1398 343 c7 -3 16 -2 19 1 4 3 -2 6 -13 5 -11 0 -14 -3 -6 -6z"/>
<path d="M1678 333 c6 -2 9 -10 6 -15 -4 -7 -2 -8 5 -4 13 9 5 26 -12 25 -9 0
-8 -2 1 -6z"/>
<path d="M1004 315 c36 -19 47 -19 22 0 -11 8 -27 15 -35 15 -9 0 -3 -7 13
-15z"/>
<path d="M1070 319 c0 -5 -4 -7 -10 -4 -5 3 -10 1 -10 -4 0 -6 9 -11 20 -11
13 0 18 5 14 15 -7 17 -14 20 -14 4z"/>
<path d="M1550 326 c0 -2 7 -6 15 -10 8 -3 15 -1 15 4 0 6 -7 10 -15 10 -8 0
-15 -2 -15 -4z"/>
<path d="M1610 319 c0 -5 5 -7 10 -4 6 3 10 8 10 11 0 2 -4 4 -10 4 -5 0 -10
-5 -10 -11z"/>
<path d="M2261 312 c7 -10 17 -19 23 -19 6 0 20 -4 31 -7 11 -4 5 1 -12 10
-18 10 -33 21 -33 26 0 4 -5 8 -10 8 -6 0 -6 -7 1 -18z"/>
<path d="M948 313 c7 -3 16 -2 19 1 4 3 -2 6 -13 5 -11 0 -14 -3 -6 -6z"/>
<path d="M1105 310 c-3 -4 10 -10 29 -12 36 -4 56 0 56 10 0 10 -79 12 -85 2z"/>
<path d="M1785 311 c-3 -5 0 -13 6 -17 7 -4 9 -3 5 4 -4 7 6 12 26 15 l33 4
-32 1 c-17 1 -34 -2 -38 -7z"/>
<path d="M1870 309 c0 -5 11 -9 25 -9 14 0 25 2 25 4 0 2 -11 6 -25 8 -14 3
-25 1 -25 -3z"/>
<path d="M1209 299 c-16 -10 -9 -11 48 -9 38 1 42 -1 36 -17 -6 -15 -4 -16 9
-5 11 9 32 11 67 6 45 -6 51 -5 45 10 -5 12 -10 13 -25 5 -10 -5 -19 -6 -19
-2 0 4 -12 9 -27 10 -16 0 -49 3 -74 6 -25 3 -52 1 -60 -4z"/>
<path d="M2227 287 c3 -15 9 -25 13 -22 4 3 10 -2 13 -9 3 -8 15 -14 26 -13
26 2 28 17 2 17 -11 0 -28 12 -39 27 l-20 28 5 -28z"/>
<path d="M2765 282 c11 -13 29 -28 40 -34 21 -11 18 -8 -30 32 -29 24 -29 24
-10 2z"/>
<path d="M1475 280 c-3 -5 -2 -10 4 -10 5 0 13 5 16 10 3 6 2 10 -4 10 -5 0
-13 -4 -16 -10z"/>
<path d="M1435 270 c-3 -5 -2 -10 4 -10 5 0 13 5 16 10 3 6 2 10 -4 10 -5 0
-13 -4 -16 -10z"/>
<path d="M1505 260 c3 -5 8 -10 11 -10 2 0 4 5 4 10 0 6 -5 10 -11 10 -5 0 -7
-4 -4 -10z"/>
<path d="M2696 247 c3 -10 9 -15 12 -12 3 3 0 11 -7 18 -10 9 -11 8 -5 -6z"/>
<path d="M1885 220 c-3 -5 -1 -10 4 -10 6 0 11 5 11 10 0 6 -2 10 -4 10 -3 0
-8 -4 -11 -10z"/>
<path d="M1925 219 c-4 -6 -5 -12 -2 -15 2 -3 7 2 10 11 7 17 1 20 -8 4z"/>
<path d="M2578 213 c7 -3 16 -2 19 1 4 3 -2 6 -13 5 -11 0 -14 -3 -6 -6z"/>
<path d="M2010 195 c-14 -16 -3 -20 19 -6 8 5 9 11 3 15 -5 3 -15 -1 -22 -9z"/>
<path d="M2710 186 c0 -9 5 -16 10 -16 6 0 10 4 10 9 0 6 -4 13 -10 16 -5 3
-10 -1 -10 -9z"/>
<path d="M2320 186 c0 -2 7 -7 16 -10 8 -3 12 -2 9 4 -6 10 -25 14 -25 6z"/>
<path d="M2378 173 c7 -3 16 -2 19 1 4 3 -2 6 -13 5 -11 0 -14 -3 -6 -6z"/>
<path d="M2420 166 c0 -2 7 -6 15 -10 8 -3 15 -1 15 4 0 6 -7 10 -15 10 -8 0
-15 -2 -15 -4z"/>
<path d="M2695 139 c-4 -6 -5 -12 -2 -15 2 -3 7 2 10 11 7 17 1 20 -8 4z"/>
<path d="M2578 133 c7 -3 16 -2 19 1 4 3 -2 6 -13 5 -11 0 -14 -3 -6 -6z"/>
<path d="M2613 133 c9 -8 47 -11 47 -4 0 5 -11 9 -25 9 -14 0 -24 -2 -22 -5z"/>
</g>
</svg>
